<svg xmlns="http://www.w3.org/2000/svg" viewBox="0 0 340 720" width="340" height="720" font-family="Manrope, sans-serif">
  <defs>
    <linearGradient id="sea" x1="0" y1="1" x2="1" y2="0">
      <stop offset="0" stop-color="#7FC5CE"></stop>
      <stop offset="1" stop-color="#A9DBDE"></stop>
    </linearGradient>
    <linearGradient id="land" x1="0" y1="0" x2="0" y2="1">
      <stop offset="0" stop-color="#F6EEE0"></stop>
      <stop offset="1" stop-color="#EFE4D2"></stop>
    </linearGradient>
    <filter id="pinShadow" x="-50%" y="-50%" width="200%" height="200%">
      <feDropShadow dx="0" dy="3" stdDeviation="3" flood-color="#0A2A36" flood-opacity="0.22"></feDropShadow>
    </filter>
  </defs>

  
  <rect width="340" height="720" fill="url(#land)"></rect>

  
  <rect x="34" y="120" width="78" height="64" rx="10" fill="#DDE9CF"></rect>
  <rect x="200" y="250" width="96" height="70" rx="10" fill="#DDE9CF"></rect>
  <rect x="44" y="420" width="70" height="56" rx="10" fill="#E7DCC6"></rect>
  <rect x="210" y="470" width="84" height="60" rx="10" fill="#E7DCC6"></rect>

  
  <path d="M0 560 C 70 540 120 600 200 590 C 270 582 310 620 340 600 L340 720 L0 720 Z" fill="url(#sea)"></path>
  <path d="M0 560 C 70 540 120 600 200 590 C 270 582 310 620 340 600" fill="none" stroke="#ffffff" stroke-opacity="0.6" stroke-width="2"></path>

  
  <g stroke="#FFFFFF" stroke-width="9" stroke-linecap="round" opacity="0.95">
    <path d="M-10 150 L360 120"></path>
    <path d="M-10 300 L360 285"></path>
    <path d="M-10 455 L360 430"></path>
    <path d="M60 -10 L40 600"></path>
    <path d="M180 -10 L172 600"></path>
    <path d="M285 -10 L300 580"></path>
  </g>
  <g stroke="#EADFCB" stroke-width="3" stroke-linecap="round">
    <path d="M-10 220 L360 205"></path>
    <path d="M-10 380 L360 360"></path>
    <path d="M120 -10 L108 560"></path>
    <path d="M235 -10 L240 560"></path>
  </g>

  
  <path d="M168 360 C 150 320 150 300 196 286" fill="none" stroke="#FF6A3D" stroke-width="5" stroke-linecap="round" stroke-dasharray="2 12"></path>

  
  <g filter="url(#pinShadow)">
    <path d="M196 256 c -14 0 -24 11 -24 25 c 0 18 24 41 24 41 c 0 0 24 -23 24 -41 c 0 -14 -10 -25 -24 -25 z" fill="#1FB877"></path>
    <circle cx="196" cy="281" r="9" fill="#fff"></circle>
  </g>
  <g filter="url(#pinShadow)">
    <path d="M86 150 c -12 0 -21 9 -21 21 c 0 15 21 35 21 35 c 0 0 21 -20 21 -35 c 0 -12 -9 -21 -21 -21 z" fill="#1FB877"></path>
    <circle cx="86" cy="171" r="7.5" fill="#fff"></circle>
  </g>
  <g filter="url(#pinShadow)">
    <path d="M268 432 c -12 0 -21 9 -21 21 c 0 15 21 35 21 35 c 0 0 21 -20 21 -35 c 0 -12 -9 -21 -21 -21 z" fill="#1FB877"></path>
    <circle cx="268" cy="453" r="7.5" fill="#fff"></circle>
  </g>

  
  <circle cx="168" cy="362" r="20" fill="#FF6A3D" fill-opacity="0.18"></circle>
  <circle cx="168" cy="362" r="9" fill="#FF6A3D" stroke="#fff" stroke-width="3"></circle>

  
  <g filter="url(#pinShadow)">
    <rect x="22" y="624" width="296" height="68" rx="18" fill="#FFFFFF"></rect>
  </g>
  <circle cx="56" cy="658" r="16" fill="#E6F7EF"></circle>
  <path d="M56 648 c -7 0 -12 5 -12 12 c 0 9 12 20 12 20 c 0 0 12 -11 12 -20 c 0 -7 -5 -12 -12 -12 z" fill="#1FB877"></path>
  <circle cx="56" cy="660" r="4.5" fill="#fff"></circle>
  <text x="82" y="652" font-size="15" font-weight="700" fill="#0A2A36">Plaza libre a 80 m</text>
  <text x="82" y="673" font-size="12.5" font-weight="500" fill="#5C7681">Carrer del Born · hace 12 s</text>
</svg>